# xmcd
#
# Track frame offsets:
#	150
#	15550
#	31525
#	44750
#	61070
#	76885
#	91720
#	106815
#	121397
#	137250
#	151975
#
# Disc length: 2228 seconds
#
# Revision: 1
# Processed by: cddbd v1.5PL3 Copyright (c) Steve Scherf et al.
# Submitted via: EasyCDDAExtractor 5.0.6
#
DISCID=7208b20b
DTITLE=Glenn Miller - Moonlight Serenade
DYEAR=1900
DGENRE=Blues
TTITLE0=Moonlight Serenade
TTITLE1=King Porter Stomp
TTITLE2=Little Brown Jug
TTITLE3=In The Mood
TTITLE4=Tuxedo Junction
TTITLE5=Pennsylvania 6-50000
TTITLE6=A String Of Pearls
TTITLE7=Elmer's Tune
TTITLE8=Chattanooga Choo-Choo
TTITLE9=Don't Sit Under The Apple Tree (With Anyone Else But Me)
TTITLE10=American Patrol
EXTD=
EXTT0=
EXTT1=
EXTT2=
EXTT3=
EXTT4=
EXTT5=
EXTT6=
EXTT7=
EXTT8=
EXTT9=
EXTT10=
PLAYORDER=
